<svg xmlns="http://www.w3.org/2000/svg" xmlns:svgjs="http://svgjs.com/svgjs" xmlns:xlink="http://www.w3.org/1999/xlink" width="1000" height="1000" version="1.1"><rect width="1000" height="1000" fill="#fff" rx="200" ry="200"/><g transform="matrix(5.934189834732813,0,0,5.934189834732813,100.0024932957545,316.8846057737775)"><svg xmlns="http://www.w3.org/2000/svg" xmlns:svgjs="http://svgjs.com/svgjs" xmlns:xlink="http://www.w3.org/1999/xlink" width="134.812" height="61.709" version="1.1"><svg xmlns="http://www.w3.org/2000/svg" xmlns:xlink="http://www.w3.org/1999/xlink" id="Logo" width="134.812" height="61.709" viewBox="0 0 134.812 61.709"><defs><clipPath id="clip-path"><rect id="Rechteck_2" width="134.812" height="61.709" fill="#333" data-name="Rechteck 2"/></clipPath></defs><g id="Gruppe_1" clip-path="url(#clip-path)" data-name="Gruppe 1"><path id="Pfad_1" fill="#333" d="M106.3,60.743a.35.35,0,0,1-.193.34A2.668,2.668,0,0,1,105,61.29a3.542,3.542,0,0,1-2.554-1.045,3.972,3.972,0,0,1-1.035-2.7,2.79,2.79,0,0,1,3.056-3.123,2.831,2.831,0,0,1,2.293.79,1.513,1.513,0,0,1,.2.646c.009.085.019.146.069.146.066,0,.089-.048.089-.206a12.761,12.761,0,0,1,.066-1.385c0-.038-.021-.076-.117-.089a5.02,5.02,0,0,1-.791-.1,8.243,8.243,0,0,0-1.492-.165,4.78,4.78,0,0,0-2.6.613,3.693,3.693,0,0,0-1.629,3.211,3.8,3.8,0,0,0,1.159,2.779A5.314,5.314,0,0,0,107,61.27c.121-.069.128-.089.128-.527V59.65c0-.409,0-.7.019-1.016.02-.34.1-.506.362-.557a1.5,1.5,0,0,1,.244-.028c.042,0,.08-.019.08-.057,0-.061-.051-.08-.159-.08-.292,0-.908.029-.953.029s-.667-.029-1.105-.029c-.107,0-.155.02-.155.08,0,.038.041.057.079.057a1.944,1.944,0,0,1,.331.028c.391.108.438.217.438,1.007v1.659Zm-10.869-2.4c-.028,0-.051-.019-.028-.066l.857-2.637c.048-.146.1-.146.149,0l.925,2.637c.009.038.009.066-.039.066ZM94.069,60.5c-.178.489-.369.857-.819.918-.076.01-.217.019-.283.019-.048,0-.089.02-.089.058,0,.061.061.079.188.079.457,0,.994-.028,1.1-.028s.527.028.763.028c.089,0,.146-.019.146-.079,0-.038-.028-.058-.1-.058h-.1c-.165,0-.371-.089-.371-.282a2.049,2.049,0,0,1,.14-.654l.584-1.729a.1.1,0,0,1,.1-.076h2.1a.084.084,0,0,1,.085.058l.909,2.4c.057.155,0,.244-.058.264-.038.01-.07.028-.07.066,0,.061.108.061.293.07.673.019,1.385.019,1.531.019.107,0,.2-.019.2-.079s-.038-.058-.1-.058a1.288,1.288,0,0,1-.395-.057c-.2-.061-.485-.216-.838-1.083-.6-1.483-2.129-5.515-2.274-5.886-.114-.3-.152-.35-.213-.35s-.1.057-.213.378Zm-7.026-5.883,1.232.02c.934.019,1.169.244,1.2.536l.01.108c.013.137.032.165.079.165s.067-.041.067-.127c0-.108.031-.781.031-1.073,0-.061,0-.118-.051-.118s-.127.029-.273.048a3.607,3.607,0,0,1-.692.051H84.984c-.117,0-.488-.019-.769-.051a1.887,1.887,0,0,1-.432-.114c-.038,0-.076.124-.1.185s-.217.918-.217,1.013c0,.061.02.089.048.089s.066-.019.1-.1a1.644,1.644,0,0,1,.165-.3c.159-.234.391-.3,1-.311l1.442-.02v4.126c0,.938,0,1.709-.048,2.119-.041.282-.089.495-.282.536a1.5,1.5,0,0,1-.292.038c-.061,0-.08.029-.08.058,0,.061.048.079.156.079.292,0,.908-.028.955-.028s.664.028,1.2.028c.108,0,.155-.028.155-.079,0-.028-.019-.058-.076-.058a4.238,4.238,0,0,1-.438-.038c-.295-.041-.353-.254-.381-.536-.051-.41-.051-1.182-.051-2.119V54.616Zm-8.328,3.726c-.025,0-.045-.019-.025-.066l.857-2.637c.048-.146.1-.146.146,0l.928,2.637c.009.038.009.066-.039.066ZM77.349,60.5c-.171.489-.368.857-.819.918-.076.01-.213.019-.279.019s-.089.02-.089.058c0,.061.058.079.185.079.457,0,1-.028,1.105-.028s.526.028.759.028c.086,0,.146-.019.146-.079,0-.038-.028-.058-.1-.058h-.1c-.165,0-.371-.089-.371-.282a2.03,2.03,0,0,1,.136-.654l.585-1.729a.1.1,0,0,1,.1-.076h2.1a.084.084,0,0,1,.085.058l.909,2.4c.057.155,0,.244-.061.264-.038.01-.067.028-.067.066,0,.061.105.061.293.07.673.019,1.385.019,1.534.019.1,0,.19-.019.19-.079s-.038-.058-.1-.058a1.293,1.293,0,0,1-.391-.057c-.206-.061-.485-.216-.838-1.083-.6-1.483-2.125-5.515-2.274-5.886-.118-.3-.156-.35-.213-.35s-.1.057-.216.378Zm-4.936-3.475c0-1.521,0-1.795.019-2.106.02-.343.1-.508.382-.556a2.2,2.2,0,0,1,.324-.028.068.068,0,0,0,.076-.061c0-.058-.048-.076-.156-.076-.292,0-1.007.028-1.055.028s-.663-.028-1.1-.028c-.108,0-.156.019-.156.076,0,.038.038.061.08.061a1.86,1.86,0,0,1,.33.028c.324.066.4.223.419.556.02.312.02.585.02,2.106v1.718c0,.938,0,1.709-.048,2.119-.041.282-.089.495-.282.536a1.509,1.509,0,0,1-.293.038c-.061,0-.079.029-.079.058,0,.061.048.079.155.079.146,0,.362-.01.56-.019s.358-.01.4-.01c.283,0,.588.01,1,.028s.921.028,1.619.028c.521,0,.547-.038.616-.263a6.451,6.451,0,0,0,.146-.976c0-.109-.01-.146-.058-.146s-.079.048-.089.127a1.338,1.338,0,0,1-.254.585c-.235.282-.661.292-1.182.292-.759,0-1.013-.066-1.169-.222-.178-.179-.216-.8-.216-2.236V57.024Zm-9.885.579c0-2.138,1.22-3.212,2.846-3.212,1.544,0,2.967,1.258,2.967,3.6,0,2.839-1.813,3.345-2.693,3.345-1.753,0-3.12-1.466-3.12-3.736m-.933.272a3.662,3.662,0,0,0,3.792,3.834,3.828,3.828,0,0,0,3.892-3.989,3.555,3.555,0,0,0-3.834-3.659,3.78,3.78,0,0,0-3.85,3.814m-3.647,3.834a5.625,5.625,0,0,0,1.753-.226c.178-.076.2-.1.255-.282a10.022,10.022,0,0,0,.216-1.249c0-.079-.02-.146-.07-.146s-.076.038-.1.146a1.911,1.911,0,0,1-.362.82,2.248,2.248,0,0,1-1.7.488,3.525,3.525,0,0,1-3.525-3.573,3.252,3.252,0,0,1,.88-2.544,2.968,2.968,0,0,1,2.245-.715,3.256,3.256,0,0,1,1.95.556,1.358,1.358,0,0,1,.41,1c0,.137.01.2.079.2s.076-.058.086-.2.01-.684.028-1.007c.02-.35.051-.467.051-.547,0-.057-.019-.1-.127-.107a8.258,8.258,0,0,1-1-.146,8.495,8.495,0,0,0-1.413-.114A3.944,3.944,0,0,0,54.639,55.1a3.893,3.893,0,0,0-1.093,2.665,3.734,3.734,0,0,0,1.182,2.887,4.5,4.5,0,0,0,3.22,1.054M45.246,57.6c0-2.138,1.22-3.212,2.85-3.212,1.54,0,2.967,1.258,2.967,3.6,0,2.839-1.817,3.345-2.694,3.345-1.757,0-3.123-1.466-3.123-3.736m-.928.272A3.657,3.657,0,0,0,48.1,61.709,3.828,3.828,0,0,0,52,57.72a3.554,3.554,0,0,0-3.831-3.659,3.778,3.778,0,0,0-3.847,3.814m-2.3-.851c0-1.521,0-1.795.019-2.106.02-.343.1-.508.362-.556a1.34,1.34,0,0,1,.241-.028c.042,0,.08-.022.08-.061,0-.058-.048-.076-.156-.076-.292,0-.908.028-.956.028s-.663-.028-1.1-.028c-.108,0-.159.019-.159.076,0,.038.041.061.079.061a1.9,1.9,0,0,1,.334.028c.32.066.4.223.419.556.02.312.02.585.02,2.106v.206a.052.052,0,0,1-.058.058H37.006a.053.053,0,0,1-.061-.058v-.206c0-1.521,0-1.795.02-2.106.022-.343.1-.508.362-.556a1.4,1.4,0,0,1,.244-.028c.041,0,.079-.022.079-.061,0-.058-.051-.076-.158-.076-.292,0-.9.028-.953.028s-.667-.028-1.1-.028c-.108,0-.155.019-.155.076,0,.038.041.061.079.061a1.828,1.828,0,0,1,.33.028c.324.066.4.223.42.556.019.312.019.585.019,2.106v1.718c0,.938,0,1.709-.048,2.119-.038.282-.085.495-.282.536a1.461,1.461,0,0,1-.292.038c-.058,0-.076.029-.076.058,0,.061.044.079.152.079.292,0,.908-.028.959-.028s.661.028,1.2.028c.1,0,.153-.028.153-.079,0-.028-.02-.058-.077-.058a4.237,4.237,0,0,1-.438-.038c-.293-.041-.353-.254-.382-.536-.051-.41-.051-1.182-.051-2.119V57.72a.054.054,0,0,1,.061-.061h4.139a.059.059,0,0,1,.058.061v1.022c0,.938,0,1.709-.051,2.119-.038.282-.086.495-.28.536a1.49,1.49,0,0,1-.292.038c-.061,0-.082.029-.082.058,0,.061.051.079.158.079.293,0,.908-.028.956-.028s.664.028,1.2.028c.1,0,.155-.028.155-.079,0-.028-.019-.058-.076-.058a4.359,4.359,0,0,1-.441-.038c-.292-.041-.353-.254-.378-.536-.051-.41-.051-1.182-.051-2.119V57.024ZM31.388,61.709a5.632,5.632,0,0,0,1.754-.226c.178-.076.2-.1.254-.282a9.836,9.836,0,0,0,.216-1.249c0-.079-.019-.146-.069-.146s-.077.038-.1.146a1.911,1.911,0,0,1-.362.82,2.247,2.247,0,0,1-1.7.488,3.525,3.525,0,0,1-3.525-3.573,3.252,3.252,0,0,1,.88-2.544,2.969,2.969,0,0,1,2.246-.715,3.259,3.259,0,0,1,1.95.556,1.357,1.357,0,0,1,.409,1c0,.137.01.2.08.2s.076-.058.085-.2.01-.684.029-1.007c.019-.35.051-.467.051-.547,0-.057-.02-.1-.128-.107a8.316,8.316,0,0,1-1-.146,8.495,8.495,0,0,0-1.413-.114A3.947,3.947,0,0,0,28.079,55.1a3.893,3.893,0,0,0-1.093,2.665,3.734,3.734,0,0,0,1.182,2.887,4.5,4.5,0,0,0,3.22,1.054" data-name="Pfad 1"/></g><g id="Gruppe_2" clip-path="url(#clip-path)" data-name="Gruppe 2"><path id="Pfad_2" fill="#333" d="M76.346,9.551a6.943,6.943,0,0,1-2.9.5,30.877,30.877,0,0,1-5.336-.781q-3.969-.81-5.317-1a18.865,18.865,0,0,0-3.132-.3q.763-.335,1.693-.683c.619-.235,1.2-.433,1.763-.607s1.214-.355,1.976-.568c.687.1,1.379.216,2.064.324s1.433.231,2.23.365,1.429.241,1.883.327c.607.092,1.439.206,2.513.333s1.906.229,2.522.3,1.155.144,1.636.21a3.277,3.277,0,0,1-1.6,1.578M69.9,3.929c-1.458.41-2.528.68-3.217.82-.668-.1-1.344-.191-2.027-.286s-1.35-.194-2-.286-1.347-.2-2.087-.3c-.447-.076-.9-.133-1.388-.178s-1.111-.1-1.89-.165S55.769,3.4,55.076,3.35a5.576,5.576,0,0,1,2.07-1.626,7.084,7.084,0,0,1,2.834-.486,15.7,15.7,0,0,1,3.252.271c2.16.432,3.621.737,4.371.9a26.581,26.581,0,0,0,5.069.556h.457c-.7.232-1.776.552-3.229.959m5.651,2.335Q73.96,6,73.131,5.858c-.613-.1-2.179-.375-4.685-.839,1.426-.353,2.874-.766,4.329-1.239a31.925,31.925,0,0,0,3.373-1.273,6.638,6.638,0,0,0,1.388-.832A2.418,2.418,0,0,0,78.2.8L77.228.239Q76.847,1.76,74.56,1.763a10.275,10.275,0,0,1-1.729-.127q-1.753-.252-4.418-.81A35.965,35.965,0,0,0,61.868,0a16.321,16.321,0,0,0-2.452.172,8.168,8.168,0,0,0-2.053.591,7.706,7.706,0,0,0-1.7,1.022,9.11,9.11,0,0,0-1.461,1.5c-.457-.01-.877-.016-1.265-.022s-.819-.006-1.309-.006a23.448,23.448,0,0,0-3.9.261,8.426,8.426,0,0,0-2.6.88,2.607,2.607,0,0,0-1.572,2.337,2.135,2.135,0,0,0,.461,1.414,2.307,2.307,0,0,0,1.334.746,5.731,5.731,0,0,0,.952-.8,4.228,4.228,0,0,0,.639-1.025,3.206,3.206,0,0,1-1.162.254,1.427,1.427,0,0,1-.928-.279.884.884,0,0,1-.343-.721,1.273,1.273,0,0,1,.4-.884,2.626,2.626,0,0,1,1.061-.66A13.539,13.539,0,0,1,49.7,4.431q1.83,0,3.878.093a6.044,6.044,0,0,0-.1.781,2.52,2.52,0,0,0,1.465,2.347,5.361,5.361,0,0,0,.965-.489,3.471,3.471,0,0,0,.654-.683,2.358,2.358,0,0,1-1.6-.5,1.739,1.739,0,0,1-.578-1.388,88.463,88.463,0,0,1,9.116,1.3,44.814,44.814,0,0,0-4.987,1.636,15.652,15.652,0,0,0-2.137,1.042,3.78,3.78,0,0,0-1.1,1.042,2.786,2.786,0,0,0,.21.737,2.994,2.994,0,0,0,.508.629,2.749,2.749,0,0,1,.654-1.541,1.9,1.9,0,0,1,1.392-.477,30.538,30.538,0,0,1,4.844.811c2.808.581,4.812.965,6.025,1.152a22.842,22.842,0,0,0,3.439.276,8.743,8.743,0,0,0,4.939-1.369,3.546,3.546,0,0,0,1.4-1.728,33.855,33.855,0,0,0,3.716.27,20.922,20.922,0,0,0,4.7-.463A7.763,7.763,0,0,0,90.178,6.6a2.494,2.494,0,0,0,1.073-1.979,1.585,1.585,0,0,0-.4-1.127,3.027,3.027,0,0,0-1.3-.718,5.746,5.746,0,0,0-1.557,1.317c.3-.037.5-.06.619-.06a1.63,1.63,0,0,1,1.026.317,1.011,1.011,0,0,1,.406.826q0,.981-1.455,1.55a11.564,11.564,0,0,1-4.012.563,36.677,36.677,0,0,1-5.085-.413l-.611-.11c-.159-1.706-.9-2.709-2.242-3.018a3,3,0,0,0-.68.826,2.893,2.893,0,0,0-.254,1,1.913,1.913,0,0,1,.908-.3q1.153,0,1.585,1.461c-.7-.135-1.579-.295-2.646-.469" data-name="Pfad 2"/></g><g id="Gruppe_3" clip-path="url(#clip-path)" data-name="Gruppe 3"><path id="Pfad_3" fill="#333" d="M121.61,42.606c4.323-6.276,8.487-12.457,12.651-18.832a.8.8,0,0,0,.159-.485c0-.166-.159-.229-.585-.229h-8c-.914,0-2.273.032-5.006-.066a9.989,9.989,0,0,1-1.207-.193c-.158,0-.225.13-.26.521-.159.842-.585,3.348-.585,3.672,0,.229.032.359.165.359.159,0,.324-.067.388-.489a3.175,3.175,0,0,1,1.627-2.18c.911-.489,2.6-.454,4.065-.454h6.048c-3.936,6.149-8.16,12.3-12.454,18.509-.359.521-.392.715-.392.842,0,.2.2.229.521.229,5.009,0,9.853.13,14.633.13.651,0,.683-.031.845-.711a15.522,15.522,0,0,0,.588-3.189c0-.521-.066-.616-.229-.616s-.261.162-.324.423a4.451,4.451,0,0,1-.588,1.5c-.65.781-1.432,1.267-4.456,1.267H121.61Zm-18.472-6.733a56.722,56.722,0,0,1-.162,5.987c-.134.813-.2,1.366-.75,1.461a7.594,7.594,0,0,1-.876.131.22.22,0,0,0-.229.229c0,.158.162.226.458.226.451,0,1.105-.035,1.658-.067.615-.031,1.165-.031,1.232-.031.422,0,1.168,0,2.372.063,1.172.035,2.833.1,4.98.1,1.1,0,1.395,0,1.592-.712a23.066,23.066,0,0,0,.387-2.668c0-.193-.031-.423-.193-.423s-.226.1-.292.423a2.1,2.1,0,0,1-1.3,1.919,9.461,9.461,0,0,1-2.865.295c-2.827,0-3.348-.358-3.415-2.214-.031-.553,0-3.773,0-4.717V33.561a.17.17,0,0,1,.194-.193c.488,0,3.545.031,4.332.13,1.105.13,1.366.454,1.461.845a2.445,2.445,0,0,1,.131.912c0,.162.066.26.193.26.193,0,.261-.292.261-.521,0-.193.063-1.235.127-1.788a15.081,15.081,0,0,1,.229-1.524c0-.165-.063-.229-.162-.229s-.229.162-.423.356c-.292.295-.711.327-1.4.391-.647.066-4.424.066-4.783.066-.162,0-.162-.1-.162-.292V24.455c0-.193.032-.292.162-.292.324,0,3.646.031,4.136.1,1.56.193,1.854.391,2.045.845a3,3,0,0,1,.162.979c0,.229.067.358.226.358.134,0,.229-.162.261-.292.066-.327.134-1.563.165-1.823a13.114,13.114,0,0,1,.229-1.3c0-.131-.034-.261-.133-.261a1.737,1.737,0,0,0-.388.13c-.229.032-.746.131-1.3.162-.651.032-6.639,0-6.832,0-.166,0-2.015-.066-3.316-.066-.324,0-.454.066-.454.229a.276.276,0,0,0,.226.229,8.685,8.685,0,0,1,.978.061c.94.131,1.105.588,1.169,1.531.067.88.067,1.661.067,5.952v4.876ZM83.749,24.454a.354.354,0,0,1,.226-.324,12.459,12.459,0,0,1,2.052-.161c3.06,0,4.946,1.981,4.946,5.435,0,2.112-.747,3.576-1.726,4.228a3.729,3.729,0,0,1-2.146.489,9.66,9.66,0,0,1-3.157-.426.4.4,0,0,1-.194-.356V24.454ZM81.281,35.87a55.729,55.729,0,0,1-.165,5.99c-.127.813-.194,1.331-.746,1.461a4,4,0,0,1-.88.131.223.223,0,0,0-.229.229c0,.158.165.226.457.226.877,0,2.795-.1,2.826-.1.131,0,1.951.1,3.514.1.324,0,.454-.1.454-.226a.2.2,0,0,0-.226-.229,9.966,9.966,0,0,1-1.271-.131c-.877-.13-1.042-.647-1.137-1.461-.131-1.141-.131-3.287-.131-5.955v-.651c0-.162.063-.229.194-.229l3.643.066a.437.437,0,0,1,.391.162c.625.747,1.892,2.542,3.1,4.038,1.623,2.08,2.662,3.414,3.9,4.065a5.76,5.76,0,0,0,3.056.55h1.792c.518,0,.68-.067.68-.226a.251.251,0,0,0-.261-.229,5.339,5.339,0,0,1-1.007-.1c-.715-.1-1.658-.359-3.186-1.919-1.661-1.725-3.646-4.23-5.984-7.156,2.665-2.277,3.51-4.262,3.51-6.311a4.865,4.865,0,0,0-1.979-3.777,9.436,9.436,0,0,0-5.34-1.2c-.877,0-3.284.063-3.576.063-.162,0-2.08-.063-3.38-.063-.327,0-.454.066-.454.229a.273.273,0,0,0,.226.229,8.59,8.59,0,0,1,.976.061c.946.131,1.1.588,1.172,1.531.066.88.066,1.661.066,5.952V35.87Zm-18.54-.81c-.1,0-.13-.063-.1-.193L65.3,27.288c.165-.422.327-.422.489,0l2.83,7.579c.034.13.034.193-.1.193Zm-4.132,5.791c-.553,1.4-1.1,2.376-2.408,2.538a8.3,8.3,0,0,1-.845.063.255.255,0,0,0-.261.229c0,.158.2.226.553.226,1.172,0,2.6-.1,2.9-.1.324,0,1.887.1,2.57.1.257,0,.422-.067.422-.226,0-.131-.063-.229-.292-.229h-.261c-.488,0-.978-.194-.978-.747a5.721,5.721,0,0,1,.425-1.854l1.627-4.425a.3.3,0,0,1,.292-.229h6.6c.162,0,.193.031.26.162L71.776,42.7a.515.515,0,0,1-.26.747c-.127.066-.194.066-.194.2,0,.159.454.159,1.007.19,1.985.067,4.1.067,4.523.067.324,0,.648-.067.648-.226s-.194-.229-.356-.229a3.973,3.973,0,0,1-1.137-.162c-.619-.194-1.4-.553-2.439-3.024-1.76-4.2-6.343-15.611-6.864-16.783-.292-.619-.391-1.007-.683-1.007-.2,0-.324.162-.68,1.073ZM42.836,26.373a11.469,11.469,0,0,1-.782-2.31.454.454,0,0,1,.324-.485,3.481,3.481,0,0,1,1.042-.131.262.262,0,0,0,.292-.257c0-.131-.261-.2-.781-.2-1.1,0-2.373.063-2.665.063-.358,0-1.985-.063-3.351-.063-.454,0-.75.035-.75.2a.246.246,0,0,0,.229.257,5.588,5.588,0,0,1,1.1.1c.946.229,1.334.521,1.985,2.083l7.022,16.946c.553,1.334.75,1.689,1.074,1.689.292,0,.457-.423,1.235-2.08.651-1.366,1.918-4.358,3.675-8.393,1.465-3.383,2.865-6.7,3.189-7.479.746-1.887,1.2-2.277,1.6-2.538a2.654,2.654,0,0,1,1.365-.324c.226,0,.324-.127.324-.257s-.165-.2-.457-.2c-.846,0-2.081.063-2.243.063-.355,0-1.658-.063-2.795-.063-.457,0-.654.066-.654.229,0,.127.165.226.327.226a3.356,3.356,0,0,1,.975.1.583.583,0,0,1,.391.587,4.781,4.781,0,0,1-.26,1.039c-.619,1.985-4.358,11.419-6.02,15.126ZM28.78,30.994c0-4.294,0-5.075.035-5.952.063-.979.226-1.4,1.073-1.563.324-.032.746-.063.94-.063.1,0,.229-.1.229-.194,0-.162-.162-.229-.457-.229-.877,0-3.024.063-3.151.063-.162,0-1.95-.063-3.252-.063-.324,0-.454.066-.454.229a.276.276,0,0,0,.226.226,9.724,9.724,0,0,1,.978.063c.943.131,1.1.588,1.169,1.531.066.877.066,1.658.066,5.952v4.879a57.074,57.074,0,0,1-.161,5.987c-.131.813-.2,1.331-.75,1.461a3.967,3.967,0,0,1-.877.131.221.221,0,0,0-.229.229c0,.158.165.226.458.226.454,0,1.073-.035,1.657-.067.553-.031,1.042-.031,1.169-.031.846,0,1.82.031,3.119.063,1.334.066,2.929.1,4.978.1,1.527,0,1.626-.1,1.82-.743a17.385,17.385,0,0,0,.425-2.767c0-.293-.066-.423-.2-.423-.162,0-.261.162-.292.359a3.345,3.345,0,0,1-.684,1.56c-.683.813-1.953.848-3.446.848-2.245,0-3.351-.2-3.805-.651-.521-.489-.588-2.146-.588-6.213V30.994ZM7.643,35.06c-.1,0-.131-.063-.1-.193l2.665-7.579c.162-.422.327-.422.489,0l2.823,7.579c.035.13.035.193-.1.193Zm-4.13,5.791c-.553,1.4-1.105,2.376-2.407,2.538a8.45,8.45,0,0,1-.845.063A.252.252,0,0,0,0,43.681c0,.158.193.226.553.226,1.169,0,2.6-.1,2.894-.1.327,0,1.887.1,2.569.1.261,0,.426-.067.426-.226,0-.131-.066-.229-.3-.229H5.886c-.486,0-.976-.194-.976-.747a5.685,5.685,0,0,1,.423-1.854l1.626-4.425a.3.3,0,0,1,.3-.229h6.6c.162,0,.194.031.261.162L16.682,42.7a.518.518,0,0,1-.26.747c-.131.066-.2.066-.2.2,0,.159.457.159,1.01.19,1.982.067,4.1.067,4.523.067.324,0,.647-.067.647-.226s-.2-.229-.355-.229a4,4,0,0,1-1.141-.162c-.619-.194-1.4-.553-2.439-3.024-1.756-4.2-6.336-15.611-6.857-16.783-.292-.619-.394-1.007-.686-1.007-.194,0-.324.162-.68,1.073Z" data-name="Pfad 3"/></g></svg></svg></g></svg>