<svg xmlns="http://www.w3.org/2000/svg" width="47.692" height="6.118" viewBox="0 0 47.692 6.118"><path d="M73.786,7.464c1.067.128,1.906.229,2.522.3s1.155.144,1.636.21M66.683,4.749c-.668-.1-1.344-.191-2.027-.286s-1.35-.194-2-.286-1.347-.2-2.087-.3c-.447-.076-.9-.133-1.388-.178s-1.111-.1-1.89-.165S55.769,3.4,55.076,3.35M75.551,6.264Q73.96,6,73.131,5.858c-.613-.1-16.439-2.764-18.931-2.574-.457-.01-.877-.016-1.265-.022s-.819-.006-1.309-.006a23.448,23.448,0,0,0-3.9.261,8.426,8.426,0,0,0-2.6.88,2.607,2.607,0,0,0-1.572,2.337,2.135,2.135,0,0,0,.461,1.414,2.307,2.307,0,0,0,1.334.746,5.731,5.731,0,0,0,.952-.8,4.228,4.228,0,0,0,.639-1.025,3.206,3.206,0,0,1-1.162.254,1.427,1.427,0,0,1-.928-.279.884.884,0,0,1-.343-.721,1.273,1.273,0,0,1,.4-.884,2.626,2.626,0,0,1,1.061-.66,61.187,61.187,0,0,1,9.381-.07c2.557.637,26.1,3.661,27.048,3.661a20.922,20.922,0,0,0,4.7-.463A7.763,7.763,0,0,0,90.178,6.6a2.494,2.494,0,0,0,1.073-1.979,1.585,1.585,0,0,0-.4-1.127,3.027,3.027,0,0,0-1.3-.718,5.746,5.746,0,0,0-1.557,1.317c.3-.037.5-.06.619-.06a1.63,1.63,0,0,1,1.026.317,1.011,1.011,0,0,1,.406.826q0,.981-1.455,1.55a11.564,11.564,0,0,1-4.012.563,36.677,36.677,0,0,1-5.085-.413" transform="translate(-43.559 -2.776)" fill="#333"/></svg>